<?xml version="1.0" encoding="UTF-8" standalone="no"?>
<svg
   version="1.1"
   viewBox="0 0 269.09449 269.25584"
   xml:space="preserve"
   id="svg1"
   sodipodi:docname="icons.svg"
   width="269.09448"
   height="269.25583"
   xmlns:inkscape="http://www.inkscape.org/namespaces/inkscape"
   xmlns:sodipodi="http://sodipodi.sourceforge.net/DTD/sodipodi-0.dtd"
   xmlns="http://www.w3.org/2000/svg"
   xmlns:svg="http://www.w3.org/2000/svg"><defs
     id="defs1" /><sodipodi:namedview
     id="namedview1"
     pagecolor="#ffffff"
     bordercolor="#000000"
     borderopacity="0.25"
     inkscape:showpageshadow="2"
     inkscape:pageopacity="0.0"
     inkscape:pagecheckerboard="0"
     inkscape:deskcolor="#d1d1d1" /><g
     id="icons"
     style="fill:#ffffff"
     transform="matrix(11.21227,0,0,14.958657,4.3728412e-6,-44.875978)"
     inkscape:export-filename="icons.svg"
     inkscape:export-xdpi="100.47411"
     inkscape:export-ydpi="100.47411"><path
       d="M 20,3 H 4 C 1.8,3 0,4.8 0,7 v 10 c 0,2.2 1.8,4 4,4 h 16 c 2.2,0 4,-1.8 4,-4 V 7 C 24,4.8 22.2,3 20,3 Z m 1.6,5.8 -7.9,5.3 c -0.5,0.3 -1.1,0.5 -1.7,0.5 -0.6,0 -1.2,-0.2 -1.7,-0.5 L 2.4,8.8 C 2,8.5 1.9,7.9 2.2,7.4 2.5,7 3.1,6.9 3.6,7.2 l 7.9,5.3 c 0.3,0.2 0.8,0.2 1.1,0 L 20.5,7.2 C 21,6.9 21.6,7 21.9,7.5 c 0.2,0.4 0.1,1 -0.3,1.3 z"
       id="email"
       style="fill:#ffffff" /></g></svg>
