<?xml version="1.0" encoding="UTF-8" standalone="no"?>
<svg
   enable-background="new 0 0 24 24"
   height="23"
   id="Layer_1"
   version="1.1"
   viewBox="0 0 23 23"
   width="23"
   xml:space="preserve"
   sodipodi:docname="whatsapp_icon_black.svg"
   xmlns:inkscape="http://www.inkscape.org/namespaces/inkscape"
   xmlns:sodipodi="http://sodipodi.sourceforge.net/DTD/sodipodi-0.dtd"
   xmlns="http://www.w3.org/2000/svg"
   xmlns:svg="http://www.w3.org/2000/svg"><defs
     id="defs1" /><sodipodi:namedview
     id="namedview1"
     pagecolor="#ffffff"
     bordercolor="#000000"
     borderopacity="0.25"
     inkscape:showpageshadow="2"
     inkscape:pageopacity="0.0"
     inkscape:pagecheckerboard="0"
     inkscape:deskcolor="#d1d1d1" /><g
     id="g1"
     style="fill:#ffffff"
     inkscape:export-filename="g1whatsapp_icon_white.png"
     inkscape:export-xdpi="96"
     inkscape:export-ydpi="96"
     transform="translate(-0.5,-0.5)"><path
       d="M 12,0.5 C 5.7,0.5 0.5,5.7 0.5,12 c 0,2.4 0.7,4.6 2,6.5 l -1.3,3.9 c -0.1,0.2 0,0.4 0.1,0.5 0.2,0.1 0.4,0.2 0.6,0.1 l 4,-1.3 c 1.8,1.2 4,1.8 6.1,1.8 6.3,0 11.5,-5.2 11.5,-11.5 C 23.5,5.7 18.3,0.5 12,0.5 Z m 6.9,16.2 c -0.3,0.9 -1.5,1.7 -2.5,1.9 -0.2,0 -0.4,0.1 -0.7,0.1 -0.8,0 -1.8,-0.3 -3.4,-0.9 -2,-0.8 -4,-2.6 -5.6,-4.9 0,0 -0.1,-0.1 -0.1,-0.1 C 6,12 5.1,10.6 5.1,9.1 5.1,7.4 6,6.5 6.3,6.1 6.7,5.7 7.2,5.5 7.8,5.5 c 0.1,0 0.2,0 0.3,0 0,0 0.1,0 0.1,0 0.5,0 0.8,0.2 1.1,0.8 l 0.2,0.4 c 0.3,0.7 0.7,1.8 0.8,2 0.2,0.4 0.2,0.7 0,1 -0.1,0.2 -0.2,0.4 -0.4,0.6 -0.1,0.1 -0.2,0.2 -0.2,0.3 -0.1,0.1 -0.2,0.2 -0.3,0.3 0,0.1 0,0.1 0,0.1 0.3,0.5 0.9,1.4 1.7,2.1 1.1,1 1.9,1.3 2.3,1.5 h 0.1 c 0.1,0 0.2,0.1 0.2,0 0.2,-0.2 0.4,-0.6 0.7,-0.9 l 0.1,-0.1 c 0.3,-0.4 0.7,-0.5 0.9,-0.5 0.1,0 0.3,0 0.4,0.1 0.1,0 0.3,0.1 2.2,1.1 l 0.2,0.1 c 0.3,0.1 0.5,0.2 0.6,0.5 0.4,0.2 0.3,1.1 0.1,1.8 z"
       id="path1"
       style="fill:#ffffff" /></g></svg>
