<?xml version="1.0" encoding="UTF-8" standalone="no"?>
<svg
   height="14"
   viewBox="0 0 18 14"
   width="18"
   fill="#000000"
   version="1.1"
   id="svg2"
   sodipodi:docname="horizontal_split_black_24dp.svg"
   xmlns:inkscape="http://www.inkscape.org/namespaces/inkscape"
   xmlns:sodipodi="http://sodipodi.sourceforge.net/DTD/sodipodi-0.dtd"
   xmlns="http://www.w3.org/2000/svg"
   xmlns:svg="http://www.w3.org/2000/svg">
  <defs
     id="defs2" />
  <sodipodi:namedview
     id="namedview2"
     pagecolor="#ffffff"
     bordercolor="#000000"
     borderopacity="0.25"
     inkscape:showpageshadow="2"
     inkscape:pageopacity="0.0"
     inkscape:pagecheckerboard="0"
     inkscape:deskcolor="#d1d1d1" />
  <path
     d="M -3,-5 H 21 V 19 H -3 Z"
     fill="none"
     id="path1" />
  <path
     d="m 1,14 h 16 c 0.55,0 1,-0.45 1,-1 V 9 C 18,8.45 17.55,8 17,8 H 1 C 0.45,8 0,8.45 0,9 v 4 c 0,0.55 0.45,1 1,1 z M 1,6 H 17 C 17.55,6 18,5.55 18,5 18,4.45 17.55,4 17,4 H 1 C 0.45,4 0,4.45 0,5 0,5.55 0.45,6 1,6 Z M 0,1 C 0,1.55 0.45,2 1,2 H 17 C 17.55,2 18,1.55 18,1 18,0.45 17.55,0 17,0 H 1 C 0.45,0 0,0.45 0,1 Z"
     id="path2"
     style="fill:#ffffff" />
</svg>
