<?xml version="1.0" encoding="UTF-8" standalone="no"?>
<svg
   viewBox="0 0 27.973007 27.86274"
   version="1.1"
   id="svg1"
   sodipodi:docname="telegram_icon_white.svg"
   width="27.973007"
   height="27.86274"
   xmlns:inkscape="http://www.inkscape.org/namespaces/inkscape"
   xmlns:sodipodi="http://sodipodi.sourceforge.net/DTD/sodipodi-0.dtd"
   xmlns="http://www.w3.org/2000/svg"
   xmlns:svg="http://www.w3.org/2000/svg">
  <defs
     id="defs1" />
  <sodipodi:namedview
     id="namedview1"
     pagecolor="#ffffff"
     bordercolor="#000000"
     borderopacity="0.25"
     inkscape:showpageshadow="2"
     inkscape:pageopacity="0.0"
     inkscape:pagecheckerboard="0"
     inkscape:deskcolor="#d1d1d1" />
  <title
     id="title1" />
  <g
     id="Telegram"
     style="fill:#ffffff"
     inkscape:export-filename="Telegram.svg"
     inkscape:export-xdpi="96"
     inkscape:export-ydpi="96"
     transform="translate(-2.0279818,-1.9984382)">
    <path
       d="M 26.49,29.86 H 5.5 a 3.37,3.37 0 0 1 -2.47,-1 3.35,3.35 0 0 1 -1,-2.47 V 5.48 A 3.36,3.36 0 0 1 3,3 3.37,3.37 0 0 1 5.5,2 h 21 a 3.38,3.38 0 0 1 2.5,1 3.36,3.36 0 0 1 1,2.46 v 20.91 a 3.35,3.35 0 0 1 -1,2.47 3.38,3.38 0 0 1 -2.51,1.02 z m -5.38,-6.71 a 0.79,0.79 0 0 0 0.85,-0.66 L 24.73,9.24 A 0.55,0.55 0 0 0 24.55,8.78 0.62,0.62 0 0 0 24.14,8.61 q -0.08,0 -16.53,6.11 a 0.59,0.59 0 0 0 -0.41,0.59 0.57,0.57 0 0 0 0.43,0.52 l 4,1.24 1.61,4.83 a 0.62,0.62 0 0 0 0.63,0.43 0.56,0.56 0 0 0 0.4,-0.17 l 2.27,-2.16 4.09,3 a 0.9,0.9 0 0 0 0.48,0.15 z m -7.31,-2.44 -1.21,-4 q 8.72,-5.55 8.78,-5.55 c 0.15,0 0.23,0 0.23,0.16 a 0.18,0.18 0 0 1 0,0.06 c 0,0 -2.51,2.3 -7.52,6.8 z"
       id="path1"
       style="fill:#ffffff" />
  </g>
</svg>
